# AST/ASF file generated using VICON BodyLanguage
# -----------------------------------------------
:version 1.10
:name VICON
:units
  mass 1.0
  length 0.45
  angle deg
:documentation
   .ast/.asf automatically generated from VICON data using
   VICON BodyBuilder and BodyLanguage model FoxedUp or BRILLIANT.MOD
:root
   order TX TY TZ RX RY RZ
   axis XYZ
   position 0 0 0  
   orientation 0 0 0 
:bonedata
  begin
     id 1 
     name lhipjoint
     direction 0.561145 -0.797705 0.220866 
     length 2.46425 
     axis 0 0 0  XYZ
  end
  begin
     id 2 
     name lfemur
     direction 0.34202 -0.939693 0  
     length 7.95556  
     axis 0 0 20  XYZ
    dof rx ry rz
    limits (-160.0 20.0)
           (-70.0 70.0)
           (-60.0 70.0)
  end
  begin
     id 3 
     name ltibia
     direction 0.34202 -0.939693 0   
     length 7.9832   
     axis 0 0 20   XYZ
    dof rx
    limits (-10.0 170.0)
  end
  begin
     id 4 
     name lfoot
     direction 0.0723927 -0.198897 0.977343   
     length 2.23085   
     axis -90 7.62852e-016 20   XYZ
    dof rx rz
    limits (-45.0 90.0)
           (-70.0 20.0)
  end
  begin
     id 5 
     name ltoes
     direction 1.53826e-011 -4.21988e-011 1   
     length 1.12127   
     axis -90 7.62852e-016 20   XYZ
    dof rx
    limits (-90.0 20.0)
  end
  begin
     id 6 
     name rhipjoint
     direction -0.610499 -0.763299 0.21134   
     length 2.57533  
     axis 0 0 0  XYZ 
  end
  begin
     id 7 
     name rfemur
     direction -0.34202 -0.939693 0   
     length 8.65257   
     axis 0 0 -20   XYZ
    dof rx ry rz
    limits (-160.0 20.0)
           (-70.0 70.0)
           (-70.0 60.0)
  end
  begin
     id 8 
     name rtibia
     direction -0.342021 -0.939692 0   
     length 7.37807   
     axis 0 0 -20   XYZ
    dof rx
    limits (-10.0 170.0)
 end
 begin
     id 9 
     name rfoot
     direction -0.0239304 -0.0543852 0.998233   
     length 1.87018  
     axis -90 -7.62852e-016 -20   XYZ
    dof rx rz
    limits (-45.0 90.0)
           (-20.0 70.0)
  end
  begin
     id 10 
     name rtoes
     direction -1.53584e-011 -4.2242e-011 1   
     length 0.951568   
     axis -90 -7.62852e-016 -20   XYZ
    dof rx
    limits (-90.0 20.0)
  end
  begin
     id 11 
     name lowerback
     direction 0.00322089 0.999033 0.0438587   
     length 2.07568   
     axis 0 0 0   XYZ
    dof rx ry rz
    limits (-20.0 45.0)
           (-30.0 30.0)
           (-30.0 30.0)
  end
  begin
     id 12 
     name upperback
     direction -0.00321932 0.999732 -0.0229403   
     length 2.06253   
     axis 0 0 0   XYZ
    dof rx ry rz
    limits (-20.0 45.0)
           (-30.0 30.0)
           (-30.0 30.0)
  end
  begin
     id 13 
     name thorax
     direction -0.00537537 0.998955 -0.0453918   
     length 2.06975   
     axis 0 0 0   XYZ
    dof rx ry rz
    limits (-20.0 45.0)
           (-30.0 30.0)
           (-30.0 30.0)
  end
  begin
     id 14 
     name lowerneck
     direction -0.00013604 0.994111 0.108363   
     length 1.50836   
     axis 0 0 0   XYZ
    dof rx ry rz
    limits (-20.0 45.0)
           (-30.0 30.0)
           (-30.0 30.0)
  end
  begin
     id 15 
     name upperneck
     direction 0.0397262 0.983859 -0.174482   
     length 1.53037   
     axis 0 0 0   XYZ
    dof rx ry rz
    limits (-20.0 45.0)
           (-30.0 30.0)
           (-30.0 30.0)
  end
  begin
     id 16
     name head
     direction 0.0109991 0.997082 -0.0755378  
     length 1.56928  
     axis 0 0 0   XYZ
    dof rx ry rz
    limits (-20.0 45.0)
           (-30.0 30.0)
           (-30.0 30.0)
  end
  begin
     id 17 
     name lclavicle
     direction 0.964749 0.254 -0.068874  
     length 3.26503  
     axis 0 0 0   XYZ
    dof ry rz
    limits (-20.0 10.0)
           (0.0 20.0)
  end
  begin
     id 18 
     name lhumerus
     direction 1 -4.48941e-011 -2.05079e-027   
     length 5.68236   
     axis 180 -30 -90   XYZ
    dof rx ry rz
    limits (-60.0 90.0)
           (-90.0 90.0)
           (-90.0 90.0)
  end
  begin
     id 19
     name lradius
     direction 1 -4.48956e-011 6.2882e-027   
     length 3.17112   
     axis 180 -30 -90   XYZ
    dof rx
    limits (-10.0 170.0)
  end
  begin
     id 20
     name lwrist
     direction 1 -4.49014e-011 1.73219e-026   
     length 1.58556   
     axis -1.04724e-014 90 90   XYZ
    dof ry
    limits (-180.0 0.0)
 end
  begin
     id 21 
     name lhand
     direction 1 -4.49312e-011 3.46438e-026   
     length 0.632691   
     axis -2.21057e-014 90 90   XYZ
    dof rx rz
    limits (-90.0 90.0)
           (-45.0 45.0)
  end
  begin
     id 22 
     name lfingers
     direction 1 -4.48894e-011 6.92876e-026   
     length 0.510091   
     axis -4.42114e-014 90 90   XYZ
    dof rx
    limits (0.0 90.0)
  end
  begin
     id 23
     name lthumb
     direction 0.707107 -6.34705e-011 0.707107   
     length 0.732392   
     axis -90 45 2.85299e-015   XYZ
    dof rx rz
    limits (-45.0 45.0)
           (-45.0 45.0)
  end
  begin
     id 24 
     name rclavicle
     direction -0.954374 0.280496 -0.102435   
     length 3.25419  
     axis 0 0 0   XYZ 
    dof ry rz
    limits (-10.0 20.0)
           (-20.0 0.0)
  end
  begin
     id 25 
     name rhumerus
     direction -1 -4.48994e-011 -1.07204e-017  
     length 5.8712   
     axis 180 30 90   XYZ
    dof rx ry rz
    limits (-90.0 60.0)
           (-90.0 90.0)
           (-90.0 90.0)
  end
  begin
     id 26 
     name rradius
     direction -1 -4.48972e-011 5.89292e-027   
     length 3.37589   
     axis 180 30 90   XYZ
    dof rx
    limits (-10.0 170.0)
  end
  begin
     id 27 
     name rwrist
     direction -1 -4.48942e-011 1.73219e-026   
     length 1.68794   
     axis -1.04724e-014 -90 -90   XYZ
    dof ry
    limits (-180.0 0.0)
  end
  begin
     id 28
     name rhand
     direction -1 -4.48514e-011 3.46438e-026   
     length 0.603257   
     axis -2.21057e-014 -90 -90   XYZ
    dof rx rz
    limits (-90.0 90.0)
           (-45.0 45.0)
  end
  begin
     id 29
     name rfingers
     direction -1 -4.50028e-011 6.92876e-026   
     length 0.486362   
     axis -4.42114e-014 -90 -90   XYZ
    dof rx
    limits (0.0 90.0)
  end
  begin
     id 30
     name rthumb
     direction -0.707107 -6.34926e-011 0.707107   
     length 0.698321   
     axis -90 -45 -2.85299e-015   XYZ
    dof rx rz
    limits (-45.0 45.0)
           (-45.0 45.0)
  end
:hierarchy
  begin
    root lhipjoint rhipjoint lowerback
    lhipjoint lfemur
    lfemur ltibia
    ltibia lfoot
    lfoot ltoes
    rhipjoint rfemur
    rfemur rtibia
    rtibia rfoot
    rfoot rtoes
    lowerback upperback
    upperback thorax
    thorax lowerneck lclavicle rclavicle
    lowerneck upperneck
    upperneck head
    lclavicle lhumerus
    lhumerus lradius
    lradius lwrist
    lwrist lhand lthumb
    lhand lfingers
    rclavicle rhumerus
    rhumerus rradius
    rradius rwrist
    rwrist rhand rthumb
    rhand rfingers
  end

#!OML:ASF I:\Segmentation\Patient Classification 1\Patient 1\Session 1\Patient1.ASF
:FULLY-SPECIFIED
:DEGREES
859
root 6.49406 16.6298 -1.90218 9.62889 87.4437 -388.895
lowerback 7.81517 1.03507 -0.948178
upperback 3.21251 1.40798 1.45898
thorax -1.12056 0.720813 1.91306
lowerneck -21.2849 -2.83742 -4.71917
upperneck 2.28295 -2.83656 5.4103
head 4.17511 -1.02941 2.19247
rclavicle 1.43125e-014 -9.34288e-015
rhumerus -39.1889 3.34825 -77.9717
rradius 39.5534
rwrist 4.494
rhand -21.6269 30.0573
rfingers 7.12502
rthumb 4.76902 0.130932
lclavicle 1.43125e-014 -9.34288e-015
lhumerus -34.7991 -11.3181 82.3405
lradius 39.0233
lwrist 22.2602
lhand -15.9736 35.5797
lfingers 7.12502
lthumb 10.2256 65.3112
rfemur -73.4155 3.39209 16.8233
rtibia 62.2348
rfoot -16.3828 5.95928
rtoes -15.1307
lfemur -75.948 3.20114 -17.1524
ltibia 61.5443
lfoot -21.7806 3.07251
ltoes -18.0764
860
root 6.51251 16.6743 -1.90023 6.94971 87.5499 -391.489
lowerback 7.81676 0.999922 -0.738574
upperback 3.18175 1.37649 1.45945
thorax -1.14736 0.706691 1.79804
lowerneck -21.1892 -2.85903 -4.82586
upperneck 2.52812 -2.8774 5.60522
head 4.24578 -1.04225 2.26695
rclavicle 2.78299e-015 2.72335e-014
rhumerus -40.8914 2.63487 -77.4232
rradius 39.0219
rwrist 4.50838
rhand -22.3303 30.8555
rfingers 7.12502
rthumb 4.08982 0.915045
lclavicle 2.78299e-015 2.72335e-014
lhumerus -36.1473 -11.0286 82.0042
lradius 38.6079
lwrist 22.1071
lhand -15.8254 35.4331
lfingers 7.12502
lthumb 10.3686 65.1575
rfemur -72.8751 3.44013 16.8884
rtibia 61.623
rfoot -16.4136 6.0881
rtoes -16.357
lfemur -75.4445 3.08948 -16.9698
ltibia 60.9565
lfoot -21.7574 3.04118
ltoes -18.9091
861
root 6.53254 16.717 -1.89608 5.45356 87.6447 -392.907
lowerback 7.8208 0.957418 -0.641846
upperback 3.16348 1.32765 1.47374
thorax -1.16492 0.683119 1.76242
lowerneck -21.0429 -2.84877 -4.92022
upperneck 2.63938 -2.86794 5.73767
head 4.26287 -1.03432 2.3251
rclavicle -2.82274e-014 -4.83047e-014
rhumerus -42.5597 1.84223 -76.7305
rradius 38.545
rwrist 4.58002
rhand -22.6678 31.1571
rfingers 7.12502
rthumb 3.76391 1.21064
lclavicle -2.82274e-014 -4.83047e-014
lhumerus -37.5245 -10.7148 81.6552
lradius 38.2964
lwrist 22.0282
lhand -15.708 35.3179
lfingers 7.12502
lthumb 10.4818 65.0365
rfemur -72.3696 3.49867 16.8646
rtibia 61.0447
rfoot -16.4181 6.18681
rtoes -16.9384
lfemur -74.9572 2.98661 -16.8765
ltibia 60.3594
lfoot -21.7236 3.06577
ltoes -19.7257
862
root 6.55288 16.7546 -1.89014 7.20838 87.7037 -391.169
lowerback 7.69328 0.925029 -0.706682
upperback 3.15302 1.27921 1.47583
thorax -1.10485 0.657902 1.80723
lowerneck -20.8982 -2.83895 -4.94516
upperneck 2.69937 -2.8588 5.69981
head 4.25925 -1.03678 2.31823
rclavicle -1.19271e-014 -2.26615e-014
rhumerus -44.1882 1.04781 -75.9019
rradius 38.1785
rwrist 4.64046
rhand -22.5089 31.0629
rfingers 7.12502
rthumb 3.91732 1.11918
lclavicle -1.19271e-014 -2.26615e-014
lhumerus -38.8979 -10.5239 81.3559
lradius 38.0386
lwrist 22.2023
lhand -15.633 35.2319
lfingers 7.12502
lthumb 10.5542 64.9469
rfemur -72.0308 3.52707 16.7317
rtibia 60.5033
rfoot -16.3949 6.37296
rtoes -17.6958
lfemur -74.5723 2.8868 -16.9015
ltibia 59.7717
lfoot -21.7558 3.07277
ltoes -20.1011
863
root 6.57303 16.7906 -1.8843 11.2128 87.7282 -387.199
lowerback 7.49933 0.904106 -0.875138
upperback 3.19291 1.23878 1.44833
thorax -0.957701 0.635419 1.8805
lowerneck -20.7781 -2.80277 -4.89583
upperneck 2.755 -2.82973 5.64507
head 4.25553 -1.02872 2.29606
rclavicle 7.15625e-015 2.60408e-014
rhumerus -45.6656 0.215205 -75.025
rradius 37.7103
rwrist 4.68818
rhand -22.5134 31.1396
rfingers 7.12502
rthumb 3.91297 1.19573
lclavicle 7.15625e-015 2.60408e-014
lhumerus -40.2051 -10.4262 81.0673
lradius 37.8006
lwrist 22.4448
lhand -15.6332 35.2189
lfingers 7.12502
lthumb 10.554 64.9339
rfemur -71.7517 3.55 16.5175
rtibia 59.9988
rfoot -16.3015 6.80483
rtoes -18.5486
lfemur -74.1788 2.78516 -17.0003
ltibia 59.2133
lfoot -21.8888 2.80394
ltoes -19.6399
864
root 6.59186 16.8193 -1.88352 11.4396 87.7497 -387.132
lowerback 7.20505 0.910259 -0.818244
upperback 3.19406 1.24992 1.45813
thorax -0.793311 0.639602 1.86231
lowerneck -20.6318 -2.78052 -4.96318
upperneck 2.82178 -2.80012 5.68368
head 4.2549 -1.01645 2.3222
rclavicle 5.1684e-015 1.35174e-014
rhumerus -47.1129 -0.713904 -73.9688
rradius 37.1989
rwrist 4.54557
rhand -21.9057 31.0735
rfingers 7.12502
rthumb 4.49981 1.14125
lclavicle 5.1684e-015 1.35174e-014
lhumerus -41.4976 -10.3351 80.78
lradius 37.5075
lwrist 22.5985
lhand -15.6097 35.187
lfingers 7.12502
lthumb 10.5767 64.9009
rfemur -71.616 3.56212 16.4791
rtibia 59.5041
rfoot -15.9906 7.38971
rtoes -18.4796
lfemur -73.9886 2.73614 -16.9869
ltibia 58.7132
lfoot -21.9284 2.69147
ltoes -19.9853
865
root 6.60708 16.8422 -1.88453 9.58389 87.7812 -389.236
lowerback 6.91979 0.921017 -0.616232
upperback 3.13923 1.27561 1.49735
thorax -0.689734 0.652448 1.79118
lowerneck -20.4547 -2.82036 -5.21428
upperneck 2.86543 -2.81444 5.79021
head 4.24847 -1.02481 2.39504
rclavicle -3.10104e-014 -3.53837e-014
rhumerus -48.6557 -1.50656 -72.8045
rradius 36.8213
rwrist 4.12489
rhand -20.7376 30.8495
rfingers 7.12502
rthumb 5.62772 0.944234
lclavicle -3.10104e-014 -3.53837e-014
lhumerus -42.7997 -10.1526 80.4704
lradius 37.1427
lwrist 22.6941
lhand -15.6092 35.1204
lfingers 7.12502
lthumb 10.5771 64.8343
rfemur -71.603 3.56159 16.5408
rtibia 59.0129
rfoot -15.611 7.8499
rtoes -18.5847
lfemur -73.9704 2.69656 -16.8801
ltibia 58.2524
lfoot -21.991 2.82361
ltoes -21.1646
866
root 6.62555 16.8821 -1.8785 12.0334 87.7998 -386.843
lowerback 6.83717 0.90348 -0.695002
upperback 3.16383 1.24737 1.49705
thorax -0.619168 0.637195 1.83885
lowerneck -20.3774 -2.83256 -5.39737
upperneck 2.90111 -2.80152 5.8895
head 4.25185 -1.0168 2.45715
rclavicle -2.06736e-014 -5.30755e-014
rhumerus -50.1626 -2.05318 -71.816
rradius 36.3264
rwrist 4.32964
rhand -20.9718 31.0607
rfingers 7.12502
rthumb 5.40161 1.14954
lclavicle -2.06736e-014 -5.30755e-014
lhumerus -44.0375 -9.80667 80.0368
lradius 36.8143
lwrist 22.7249
lhand -15.5249 35.0771
lfingers 7.12502
lthumb 10.6585 64.7868
rfemur -71.3491 3.64669 16.3649
rtibia 58.5236
rfoot -15.48 8.13274
rtoes -18.9949
lfemur -73.688 2.62152 -16.8739
ltibia 57.7844
lfoot -22.2582 2.61963
ltoes -21.286
867
root 6.64802 16.9265 -1.87134 15.1302 87.8342 -383.704
lowerback 6.83934 0.818386 -0.885549
upperback 3.20868 1.124 1.5052
thorax -0.572987 0.573912 1.9639
lowerneck -20.2495 -2.71777 -5.34839
upperneck 2.92689 -2.66556 5.83354
head 4.23148 -0.955847 2.44497
rclavicle 3.97569e-016 -4.96962e-015
rhumerus -51.5978 -2.35046 -70.9676
rradius 35.6469
rwrist 5.27188
rhand -22.5025 31.4479
rfingers 7.12502
rthumb 3.92349 1.50424
lclavicle 3.97569e-016 -4.96962e-015
lhumerus -45.3391 -9.26756 79.4736
lradius 36.5905
lwrist 22.7476
lhand -15.2936 35.0788
lfingers 7.12502
lthumb 10.8816 64.7769
rfemur -70.9457 3.76344 16.1328
rtibia 58.0448
rfoot -15.5326 8.32423
rtoes -19.1409
lfemur -73.2645 2.52688 -16.9241
ltibia 57.3023
lfoot -22.4626 2.39896
ltoes -21.8036
868
root 6.66675 16.9558 -1.86662 16.198 87.8876 -382.72
lowerback 6.75419 0.726614 -0.965291
upperback 3.2089 0.997752 1.52191
thorax -0.521902 0.509676 2.03628
lowerneck -19.9711 -2.60208 -5.20908
upperneck 2.81241 -2.54661 5.72202
head 4.14374 -0.907883 2.39941
rclavicle 2.00773e-014 7.55382e-015
rhumerus -52.9952 -2.69732 -70.0169
rradius 35.0161
rwrist 6.10708
rhand -23.6731 31.6523
rfingers 7.12502
rthumb 2.79304 1.69086
lclavicle 2.00773e-014 7.55382e-015
lhumerus -46.6676 -8.72015 78.8255
lradius 36.4275
lwrist 22.7608
lhand -15.4225 35.4486
lfingers 7.12502
lthumb 10.7573 65.1532
rfemur -70.7428 3.87023 15.9657
rtibia 57.6054
rfoot -15.6758 8.44549
rtoes -19.5204
lfemur -72.9982 2.45647 -16.9543
ltibia 56.8161
lfoot -22.5549 2.1103
ltoes -22.6157
869
root 6.68253 16.9859 -1.86082 16.2372 87.9248 -382.865
lowerback 6.60045 0.727627 -0.907895
upperback 3.20385 1.00093 1.47098
thorax -0.440365 0.51096 1.95316
lowerneck -19.7644 -2.62503 -5.1521
upperneck 2.69224 -2.6034 5.79814
head 4.07942 -0.934039 2.40955
rclavicle 7.15625e-015 4.73108e-014
rhumerus -54.4377 -3.41825 -68.9299
rradius 34.4568
rwrist 6.66901
rhand -24.239 31.879
rfingers 7.12502
rthumb 2.24658 1.91109
lclavicle 7.15625e-015 4.73108e-014
lhumerus -47.8742 -8.45937 78.1075
lradius 36.2378
lwrist 22.7414
lhand -15.9773 35.89
lfingers 7.12502
lthumb 10.222 65.6217
rfemur -70.6842 4.03689 15.7897
rtibia 57.1882
rfoot -15.9016 8.46927
rtoes -19.8774
lfemur -72.8834 2.41234 -16.8807
ltibia 56.3588
lfoot -22.5827 1.54555
ltoes -22.3373
870
root 6.69861 17.0183 -1.85608 15.3008 87.9784 -383.964
lowerback 6.47107 0.741978 -0.768529
upperback 3.22589 1.02753 1.44223
thorax -0.344388 0.524909 1.84521
lowerneck -19.7095 -2.66955 -5.22184
upperneck 2.73266 -2.66107 5.90044
head 4.08992 -0.958597 2.44768
rclavicle -1.47101e-014 -5.62561e-014
rhumerus -55.9041 -4.04444 -67.7864
rradius 33.9818
rwrist 7.0396
rhand -24.3645 32.0095
rfingers 7.12502
rthumb 2.12531 2.04035
lclavicle -1.47101e-014 -5.62561e-014
lhumerus -49.062 -8.1441 77.3644
lradius 36.1139
lwrist 22.6798
lhand -16.1819 35.8635
lfingers 7.12502
lthumb 10.0247 65.6048
rfemur -70.5837 4.18493 15.6774
rtibia 56.7972
rfoot -16.0566 8.43712
rtoes -19.9195
lfemur -72.7662 2.34837 -16.7522
ltibia 55.936
lfoot -22.5512 1.10313
ltoes -22.1225
871
root 6.71434 17.0444 -1.85303 15.9605 88.038 -383.37
lowerback 6.44793 0.713665 -0.708346
upperback 3.31154 0.995369 1.44817
thorax -0.241322 0.509346 1.82074
lowerneck -19.6591 -2.68398 -5.29845
upperneck 2.69853 -2.66349 5.90187
head 4.07279 -0.961891 2.46032
rclavicle -1.27222e-014 -1.98785e-015
rhumerus -57.2379 -4.37126 -66.6582
rradius 33.4774
rwrist 7.4024
rhand -24.6731 32.2925
rfingers 7.12502
rthumb 1.82726 2.32063
lclavicle -1.27222e-014 -1.98785e-015
lhumerus -50.189 -7.6278 76.6052
lradius 36.0238
lwrist 22.6926
lhand -16.1499 35.7229
lfingers 7.12502
lthumb 10.0555 65.4626
rfemur -70.3979 4.25352 15.5618
rtibia 56.4419
rfoot -16.1043 8.4526
rtoes -19.6329
lfemur -72.5435 2.28344 -16.7689
ltibia 55.5495
lfoot -22.5604 0.74167
ltoes -22.4281
872
root 6.72862 17.0656 -1.84947 17.0074 88.0717 -382.375
lowerback 6.54321 0.680337 -0.670262
upperback 3.37016 0.954703 1.41536
thorax -0.231159 0.490216 1.7676
lowerneck -19.4728 -2.68001 -5.24681
upperneck 2.49785 -2.66755 5.87282
head 3.98147 -0.967977 2.44321
rclavicle 3.97569e-015 7.95139e-015
rhumerus -58.5025 -4.80149 -65.5137
rradius 32.8295
rwrist 7.89962
rhand -24.9598 32.5366
rfingers 7.12502
rthumb 1.55037 2.56252
lclavicle 3.97569e-015 7.95139e-015
lhumerus -51.2895 -7.23015 75.8098
lradius 35.8192
lwrist 22.8686
lhand -16.3768 35.5021
lfingers 7.12502
lthumb 9.83665 65.2523
rfemur -70.2303 4.32031 15.4655
rtibia 56.128
rfoot -16.1042 8.53019
rtoes -19.1004
lfemur -72.3526 2.25427 -16.8193
ltibia 55.2064
lfoot -22.5868 0.529181
ltoes -23.2678
